<?xml version="1.0" encoding="iso-8859-1"?>
<!-- Generator: Adobe Illustrator 19.0.0, SVG Export Plug-In . SVG Version: 6.00 Build 0)  -->
<svg version="1.1" id="Layer_1" xmlns="http://www.w3.org/2000/svg" xmlns:xlink="http://www.w3.org/1999/xlink" x="0px" y="0px"
	 viewBox="0 0 512 512" style="enable-background:new 0 0 512 512;" xml:space="preserve">
<path style="fill:#FD5575;" d="M222.609,33.391v378.435c0,55.329-44.845,100.174-100.174,100.174L89.043,411.826l33.391-133.565
	c18.443,0,33.391-14.948,33.391-33.391V33.391C155.826,14.948,170.774,0,189.217,0S222.609,14.948,222.609,33.391z"/>
<path style="fill:#FB8454;" d="M122.435,278.261V512c-55.329,0-100.174-44.845-100.174-100.174V200.348
	c0-18.443,14.948-33.391,33.391-33.391s33.391,14.948,33.391,33.391v44.522C89.043,263.313,103.992,278.261,122.435,278.261z"/>
<path style="fill:#FDE0AE;" d="M55.652,411.826c0,36.883,29.9,66.783,66.783,66.783l29.682-66.783l-29.682-66.783
	C85.552,345.043,55.652,374.943,55.652,411.826z"/>
<path style="fill:#FAC15C;" d="M122.435,345.043v133.565c36.883,0,66.783-29.9,66.783-66.783S159.318,345.043,122.435,345.043z"/>
<path style="fill:#FFFFFF;" d="M122.435,445.217c-18.412,0-33.391-14.979-33.391-33.391s14.979-33.391,33.391-33.391
	s33.391,14.979,33.391,33.391S140.847,445.217,122.435,445.217z"/>
<rect x="439.652" style="fill:#FB8454;" width="33.391" height="128"/>
<rect x="306.087" style="fill:#FAC15C;" width="33.391" height="83.478"/>
<rect x="372.87" y="33.391" style="fill:#FB8454;" width="33.391" height="50.087"/>
<rect x="38.957" style="fill:#FAC15C;" width="33.391" height="116.87"/>
<path style="fill:#FD5575;" d="M489.739,211.478v133.565c0,55.329-44.845,100.174-100.174,100.174l-44.522-99.061l44.522-101.287
	c18.443,0,33.391-14.948,33.391-33.391s14.948-33.391,33.391-33.391S489.739,193.035,489.739,211.478z"/>
<path style="fill:#FB8454;" d="M389.565,244.87v200.348c-55.329,0-100.174-44.845-100.174-100.174V166.957
	c0-18.443,14.948-33.391,33.391-33.391s33.391,14.948,33.391,33.391v44.522C356.174,229.921,371.122,244.87,389.565,244.87z"/>
<path style="fill:#FDE0AE;" d="M322.783,345.043c0,36.883,29.9,66.783,66.783,66.783l29.682-66.783l-29.682-66.783
	C352.682,278.261,322.783,308.161,322.783,345.043z"/>
<path style="fill:#FAC15C;" d="M389.565,278.261v133.565c36.883,0,66.783-29.9,66.783-66.783S426.448,278.261,389.565,278.261z"/>
<path style="fill:#FFFFFF;" d="M389.565,378.435c18.412,0,33.391-14.979,33.391-33.391s-14.979-33.391-33.391-33.391
	s-33.391,14.979-33.391,33.391S371.153,378.435,389.565,378.435z"/>
<g>
</g>
<g>
</g>
<g>
</g>
<g>
</g>
<g>
</g>
<g>
</g>
<g>
</g>
<g>
</g>
<g>
</g>
<g>
</g>
<g>
</g>
<g>
</g>
<g>
</g>
<g>
</g>
<g>
</g>
</svg>
